<mxfile host="Electron" agent="Mozilla/5.0 (Macintosh; Intel Mac OS X 10_15_7) AppleWebKit/537.36 (KHTML, like Gecko) draw.io/26.2.15 Chrome/134.0.6998.205 Electron/35.2.1 Safari/537.36" version="26.2.15">
  <diagram name="페이지-1" id="j83RDlaUJV3kTK0UDM6z">
    <mxGraphModel dx="1177" dy="355" grid="1" gridSize="10" guides="1" tooltips="1" connect="1" arrows="1" fold="1" page="1" pageScale="1" pageWidth="150" pageHeight="200" math="0" shadow="0">
      <root>
        <mxCell id="0" />
        <mxCell id="1" parent="0" />
        <mxCell id="5JfNQNPTImUstfvguGqc-1" value="" style="rounded=0;whiteSpace=wrap;html=1;" parent="1" vertex="1">
          <mxGeometry x="-400" y="236.08500000000004" width="790" height="310" as="geometry" />
        </mxCell>
        <mxCell id="5JfNQNPTImUstfvguGqc-2" value=":Member" style="shape=umlActor;verticalLabelPosition=bottom;verticalAlign=top;html=1;outlineConnect=0;" parent="1" vertex="1">
          <mxGeometry x="-350" y="316.08500000000004" width="30" height="60" as="geometry" />
        </mxCell>
        <mxCell id="5JfNQNPTImUstfvguGqc-3" value=":ViewRentalInfoUI" style="rounded=0;whiteSpace=wrap;html=1;" parent="1" vertex="1">
          <mxGeometry x="-180" y="326.08500000000004" width="110" height="40" as="geometry" />
        </mxCell>
        <mxCell id="5JfNQNPTImUstfvguGqc-4" value=":ViewRentalInfo" style="rounded=0;whiteSpace=wrap;html=1;" parent="1" vertex="1">
          <mxGeometry x="30" y="326.08500000000004" width="100" height="40" as="geometry" />
        </mxCell>
        <mxCell id="5JfNQNPTImUstfvguGqc-5" value="" style="endArrow=none;html=1;rounded=0;exitX=1;exitY=0.5;exitDx=0;exitDy=0;entryX=0;entryY=0.5;entryDx=0;entryDy=0;" parent="1" source="5JfNQNPTImUstfvguGqc-3" target="5JfNQNPTImUstfvguGqc-4" edge="1">
          <mxGeometry width="50" height="50" relative="1" as="geometry">
            <mxPoint x="-30" y="396.08500000000004" as="sourcePoint" />
            <mxPoint x="20" y="346.08500000000004" as="targetPoint" />
          </mxGeometry>
        </mxCell>
        <mxCell id="5JfNQNPTImUstfvguGqc-6" value="" style="endArrow=none;html=1;rounded=0;entryX=0;entryY=0.5;entryDx=0;entryDy=0;" parent="1" source="5JfNQNPTImUstfvguGqc-2" target="5JfNQNPTImUstfvguGqc-3" edge="1">
          <mxGeometry width="50" height="50" relative="1" as="geometry">
            <mxPoint x="-30" y="396.08500000000004" as="sourcePoint" />
            <mxPoint x="20" y="346.08500000000004" as="targetPoint" />
          </mxGeometry>
        </mxCell>
        <mxCell id="5JfNQNPTImUstfvguGqc-9" value="" style="endArrow=classic;html=1;rounded=0;" parent="1" edge="1">
          <mxGeometry width="50" height="50" relative="1" as="geometry">
            <mxPoint x="10" y="366.08500000000004" as="sourcePoint" />
            <mxPoint x="-56" y="366.08500000000004" as="targetPoint" />
          </mxGeometry>
        </mxCell>
        <mxCell id="5JfNQNPTImUstfvguGqc-10" value="" style="shape=card;whiteSpace=wrap;html=1;rotation=90;direction=south;size=21;" parent="1" vertex="1">
          <mxGeometry x="-268.9" y="105" width="28.44" height="290.64" as="geometry" />
        </mxCell>
        <mxCell id="5JfNQNPTImUstfvguGqc-11" value="&lt;span style=&quot;font-size: 15px;&quot;&gt;&lt;b&gt;View Rental Bicycle Information&lt;/b&gt;&lt;/span&gt;" style="text;html=1;align=center;verticalAlign=middle;whiteSpace=wrap;rounded=0;" parent="1" vertex="1">
          <mxGeometry x="-400" y="235.32" width="269.99" height="30" as="geometry" />
        </mxCell>
        <mxCell id="5JfNQNPTImUstfvguGqc-12" value="1: startInterface()" style="text;html=1;align=center;verticalAlign=middle;whiteSpace=wrap;rounded=0;" parent="1" vertex="1">
          <mxGeometry x="-86" y="376.08500000000004" width="120" height="30" as="geometry" />
        </mxCell>
        <mxCell id="5JfNQNPTImUstfvguGqc-15" value="" style="endArrow=classic;html=1;rounded=0;" parent="1" edge="1">
          <mxGeometry width="50" height="50" relative="1" as="geometry">
            <mxPoint x="-56" y="325.4150000000001" as="sourcePoint" />
            <mxPoint x="10" y="325.4150000000001" as="targetPoint" />
          </mxGeometry>
        </mxCell>
        <mxCell id="5JfNQNPTImUstfvguGqc-16" value="" style="endArrow=classic;html=1;rounded=0;" parent="1" edge="1">
          <mxGeometry width="50" height="50" relative="1" as="geometry">
            <mxPoint x="-276" y="325.4150000000001" as="sourcePoint" />
            <mxPoint x="-210" y="325.4150000000001" as="targetPoint" />
          </mxGeometry>
        </mxCell>
        <mxCell id="5JfNQNPTImUstfvguGqc-17" value="2: viewRentalInfo()" style="text;html=1;align=center;verticalAlign=middle;whiteSpace=wrap;rounded=0;" parent="1" vertex="1">
          <mxGeometry x="-300" y="294.08500000000004" width="111" height="30" as="geometry" />
        </mxCell>
        <mxCell id="5JfNQNPTImUstfvguGqc-20" value="2.1: viewRentalInfo()" style="text;html=1;align=center;verticalAlign=middle;whiteSpace=wrap;rounded=0;" parent="1" vertex="1">
          <mxGeometry x="-99" y="294.08500000000004" width="146" height="30" as="geometry" />
        </mxCell>
        <mxCell id="5JfNQNPTImUstfvguGqc-22" value="2.1.1: listBicycles()" style="text;html=1;align=center;verticalAlign=middle;whiteSpace=wrap;rounded=0;" parent="1" vertex="1">
          <mxGeometry x="34" y="390" width="284" height="30" as="geometry" />
        </mxCell>
        <mxCell id="ghdDOxAWVo3WH_ttvn-a-1" value=":Bicycle" style="rounded=0;whiteSpace=wrap;html=1;" parent="1" vertex="1">
          <mxGeometry x="245" y="326.08500000000004" width="90" height="40" as="geometry" />
        </mxCell>
        <mxCell id="ghdDOxAWVo3WH_ttvn-a-4" value="2.1.2 *[For all Member&#39;s Rental Bicycles]: getBicycleDetails()" style="text;html=1;align=center;verticalAlign=middle;whiteSpace=wrap;rounded=0;" parent="1" vertex="1">
          <mxGeometry x="77" y="290.09" width="231" height="30" as="geometry" />
        </mxCell>
        <mxCell id="ajjfOYGKoBiv9RAKOlgd-3" value=":Member" style="rounded=0;whiteSpace=wrap;html=1;" parent="1" vertex="1">
          <mxGeometry x="90" y="479.99" width="100" height="40" as="geometry" />
        </mxCell>
        <mxCell id="ajjfOYGKoBiv9RAKOlgd-4" value="" style="endArrow=none;html=1;rounded=0;entryX=0.5;entryY=0;entryDx=0;entryDy=0;exitX=0.5;exitY=1;exitDx=0;exitDy=0;" parent="1" source="5JfNQNPTImUstfvguGqc-4" target="ajjfOYGKoBiv9RAKOlgd-3" edge="1">
          <mxGeometry width="50" height="50" relative="1" as="geometry">
            <mxPoint x="150" y="299" as="sourcePoint" />
            <mxPoint x="272" y="299" as="targetPoint" />
          </mxGeometry>
        </mxCell>
        <mxCell id="ajjfOYGKoBiv9RAKOlgd-5" value="" style="endArrow=classic;html=1;rounded=0;" parent="1" edge="1">
          <mxGeometry width="50" height="50" relative="1" as="geometry">
            <mxPoint x="100" y="376.0850000000001" as="sourcePoint" />
            <mxPoint x="138" y="446.09" as="targetPoint" />
          </mxGeometry>
        </mxCell>
        <mxCell id="ajjfOYGKoBiv9RAKOlgd-6" value="" style="endArrow=none;html=1;rounded=0;exitX=0.5;exitY=0;exitDx=0;exitDy=0;entryX=0.5;entryY=1;entryDx=0;entryDy=0;" parent="1" source="ajjfOYGKoBiv9RAKOlgd-3" target="ghdDOxAWVo3WH_ttvn-a-1" edge="1">
          <mxGeometry width="50" height="50" relative="1" as="geometry">
            <mxPoint x="-10" y="470" as="sourcePoint" />
            <mxPoint x="40" y="420" as="targetPoint" />
          </mxGeometry>
        </mxCell>
        <mxCell id="ajjfOYGKoBiv9RAKOlgd-7" value="" style="endArrow=none;html=1;rounded=0;exitX=1;exitY=0.5;exitDx=0;exitDy=0;entryX=0;entryY=0.5;entryDx=0;entryDy=0;" parent="1" source="5JfNQNPTImUstfvguGqc-4" target="ghdDOxAWVo3WH_ttvn-a-1" edge="1">
          <mxGeometry width="50" height="50" relative="1" as="geometry">
            <mxPoint x="150" y="490" as="sourcePoint" />
            <mxPoint x="300" y="376" as="targetPoint" />
          </mxGeometry>
        </mxCell>
        <mxCell id="ajjfOYGKoBiv9RAKOlgd-8" value="" style="endArrow=classic;html=1;rounded=0;" parent="1" edge="1">
          <mxGeometry width="50" height="50" relative="1" as="geometry">
            <mxPoint x="154" y="328.4150000000001" as="sourcePoint" />
            <mxPoint x="220" y="328.4150000000001" as="targetPoint" />
          </mxGeometry>
        </mxCell>
      </root>
    </mxGraphModel>
  </diagram>
</mxfile>
